<mxfile host="app.diagrams.net" modified="2020-09-20T02:53:50.347Z" agent="5.0 (Macintosh; Intel Mac OS X 10_15_5) AppleWebKit/537.36 (KHTML, like Gecko) Chrome/85.0.4183.83 Safari/537.36" etag="YEfyBdWiCK6CcnP2UwWu" version="13.7.3" type="github">
  <diagram id="RlJBIecMRkxVOVAl5W66" name="Page-1">
    <mxGraphModel dx="1426" dy="794" grid="1" gridSize="10" guides="1" tooltips="1" connect="1" arrows="1" fold="1" page="1" pageScale="1" pageWidth="827" pageHeight="1169" math="0" shadow="0">
      <root>
        <mxCell id="0" />
        <mxCell id="1" parent="0" />
        <mxCell id="S9zantHSCHyK7LJgYBVC-16" value="" style="edgeStyle=orthogonalEdgeStyle;rounded=0;orthogonalLoop=1;jettySize=auto;html=1;" edge="1" parent="1" source="S9zantHSCHyK7LJgYBVC-1" target="S9zantHSCHyK7LJgYBVC-2">
          <mxGeometry relative="1" as="geometry" />
        </mxCell>
        <mxCell id="S9zantHSCHyK7LJgYBVC-1" value="c=2&lt;br&gt;No=0" style="rounded=1;whiteSpace=wrap;html=1;" vertex="1" parent="1">
          <mxGeometry x="260" y="200" width="70" height="50" as="geometry" />
        </mxCell>
        <mxCell id="S9zantHSCHyK7LJgYBVC-18" value="" style="edgeStyle=orthogonalEdgeStyle;rounded=0;orthogonalLoop=1;jettySize=auto;html=1;" edge="1" parent="1" source="S9zantHSCHyK7LJgYBVC-2" target="S9zantHSCHyK7LJgYBVC-17">
          <mxGeometry relative="1" as="geometry" />
        </mxCell>
        <mxCell id="S9zantHSCHyK7LJgYBVC-20" value="" style="edgeStyle=orthogonalEdgeStyle;rounded=0;orthogonalLoop=1;jettySize=auto;html=1;" edge="1" parent="1" source="S9zantHSCHyK7LJgYBVC-2" target="S9zantHSCHyK7LJgYBVC-19">
          <mxGeometry relative="1" as="geometry" />
        </mxCell>
        <mxCell id="S9zantHSCHyK7LJgYBVC-2" value="c=0&lt;br&gt;No=1" style="rounded=1;whiteSpace=wrap;html=1;" vertex="1" parent="1">
          <mxGeometry x="260" y="280" width="70" height="50" as="geometry" />
        </mxCell>
        <mxCell id="S9zantHSCHyK7LJgYBVC-5" value="c=8&lt;br&gt;No=4" style="rounded=1;whiteSpace=wrap;html=1;" vertex="1" parent="1">
          <mxGeometry x="130" y="460" width="70" height="50" as="geometry" />
        </mxCell>
        <mxCell id="S9zantHSCHyK7LJgYBVC-8" value="c=9&lt;br&gt;No=9" style="rounded=1;whiteSpace=wrap;html=1;" vertex="1" parent="1">
          <mxGeometry x="379" y="460" width="70" height="50" as="geometry" />
        </mxCell>
        <mxCell id="S9zantHSCHyK7LJgYBVC-29" value="" style="edgeStyle=orthogonalEdgeStyle;rounded=0;orthogonalLoop=1;jettySize=auto;html=1;" edge="1" parent="1" source="S9zantHSCHyK7LJgYBVC-9" target="S9zantHSCHyK7LJgYBVC-10">
          <mxGeometry relative="1" as="geometry" />
        </mxCell>
        <mxCell id="S9zantHSCHyK7LJgYBVC-9" value="c=1&lt;br&gt;No=6" style="rounded=1;whiteSpace=wrap;html=1;" vertex="1" parent="1">
          <mxGeometry x="220" y="535" width="70" height="50" as="geometry" />
        </mxCell>
        <mxCell id="S9zantHSCHyK7LJgYBVC-10" value="c=6&lt;br&gt;No=7" style="rounded=1;whiteSpace=wrap;html=1;" vertex="1" parent="1">
          <mxGeometry x="220" y="610" width="70" height="50" as="geometry" />
        </mxCell>
        <mxCell id="S9zantHSCHyK7LJgYBVC-15" value="" style="edgeStyle=orthogonalEdgeStyle;rounded=0;orthogonalLoop=1;jettySize=auto;html=1;entryX=0.5;entryY=0;entryDx=0;entryDy=0;" edge="1" parent="1" source="S9zantHSCHyK7LJgYBVC-11" target="S9zantHSCHyK7LJgYBVC-1">
          <mxGeometry relative="1" as="geometry" />
        </mxCell>
        <mxCell id="S9zantHSCHyK7LJgYBVC-11" value="root" style="rounded=1;whiteSpace=wrap;html=1;" vertex="1" parent="1">
          <mxGeometry x="260" y="130" width="70" height="40" as="geometry" />
        </mxCell>
        <mxCell id="S9zantHSCHyK7LJgYBVC-22" value="" style="edgeStyle=orthogonalEdgeStyle;rounded=0;orthogonalLoop=1;jettySize=auto;html=1;" edge="1" parent="1" source="S9zantHSCHyK7LJgYBVC-17" target="S9zantHSCHyK7LJgYBVC-5">
          <mxGeometry relative="1" as="geometry" />
        </mxCell>
        <mxCell id="S9zantHSCHyK7LJgYBVC-24" value="" style="edgeStyle=orthogonalEdgeStyle;rounded=0;orthogonalLoop=1;jettySize=auto;html=1;" edge="1" parent="1" source="S9zantHSCHyK7LJgYBVC-17" target="S9zantHSCHyK7LJgYBVC-23">
          <mxGeometry relative="1" as="geometry" />
        </mxCell>
        <mxCell id="S9zantHSCHyK7LJgYBVC-26" value="" style="edgeStyle=orthogonalEdgeStyle;rounded=0;orthogonalLoop=1;jettySize=auto;html=1;" edge="1" parent="1" source="S9zantHSCHyK7LJgYBVC-17" target="S9zantHSCHyK7LJgYBVC-25">
          <mxGeometry relative="1" as="geometry" />
        </mxCell>
        <mxCell id="S9zantHSCHyK7LJgYBVC-17" value="c=0&lt;br&gt;No=2" style="rounded=1;whiteSpace=wrap;html=1;" vertex="1" parent="1">
          <mxGeometry x="130" y="360" width="70" height="50" as="geometry" />
        </mxCell>
        <mxCell id="S9zantHSCHyK7LJgYBVC-21" value="" style="edgeStyle=orthogonalEdgeStyle;rounded=0;orthogonalLoop=1;jettySize=auto;html=1;" edge="1" parent="1" source="S9zantHSCHyK7LJgYBVC-19" target="S9zantHSCHyK7LJgYBVC-8">
          <mxGeometry relative="1" as="geometry" />
        </mxCell>
        <mxCell id="S9zantHSCHyK7LJgYBVC-19" value="c=1&lt;br&gt;No=8" style="rounded=1;whiteSpace=wrap;html=1;" vertex="1" parent="1">
          <mxGeometry x="379" y="360" width="70" height="50" as="geometry" />
        </mxCell>
        <mxCell id="S9zantHSCHyK7LJgYBVC-23" value="c=7&lt;br&gt;No=3" style="rounded=1;whiteSpace=wrap;html=1;" vertex="1" parent="1">
          <mxGeometry x="40" y="460" width="70" height="50" as="geometry" />
        </mxCell>
        <mxCell id="S9zantHSCHyK7LJgYBVC-28" value="" style="edgeStyle=orthogonalEdgeStyle;rounded=0;orthogonalLoop=1;jettySize=auto;html=1;entryX=0.5;entryY=0;entryDx=0;entryDy=0;" edge="1" parent="1" source="S9zantHSCHyK7LJgYBVC-25" target="S9zantHSCHyK7LJgYBVC-9">
          <mxGeometry relative="1" as="geometry">
            <mxPoint x="255" y="550" as="targetPoint" />
          </mxGeometry>
        </mxCell>
        <mxCell id="S9zantHSCHyK7LJgYBVC-25" value="c=9&lt;br&gt;No=5" style="rounded=1;whiteSpace=wrap;html=1;" vertex="1" parent="1">
          <mxGeometry x="220" y="460" width="70" height="50" as="geometry" />
        </mxCell>
        <mxCell id="S9zantHSCHyK7LJgYBVC-31" value="c=2&lt;br&gt;No=0" style="rounded=1;whiteSpace=wrap;html=1;" vertex="1" parent="1">
          <mxGeometry x="580" y="330" width="70" height="50" as="geometry" />
        </mxCell>
        <mxCell id="S9zantHSCHyK7LJgYBVC-32" value="c=0&lt;br&gt;No=1" style="rounded=1;whiteSpace=wrap;html=1;" vertex="1" parent="1">
          <mxGeometry x="650" y="330" width="70" height="50" as="geometry" />
        </mxCell>
        <mxCell id="S9zantHSCHyK7LJgYBVC-33" value="c=0&lt;br&gt;No=2" style="rounded=1;whiteSpace=wrap;html=1;" vertex="1" parent="1">
          <mxGeometry x="720" y="330" width="70" height="50" as="geometry" />
        </mxCell>
        <mxCell id="S9zantHSCHyK7LJgYBVC-34" value="c=7&lt;br&gt;No=3" style="rounded=1;whiteSpace=wrap;html=1;" vertex="1" parent="1">
          <mxGeometry x="790" y="330" width="70" height="50" as="geometry" />
        </mxCell>
        <mxCell id="S9zantHSCHyK7LJgYBVC-35" value="c=8&lt;br&gt;No=4" style="rounded=1;whiteSpace=wrap;html=1;" vertex="1" parent="1">
          <mxGeometry x="860" y="330" width="70" height="50" as="geometry" />
        </mxCell>
        <mxCell id="S9zantHSCHyK7LJgYBVC-36" value="c=9&lt;br&gt;No=5" style="rounded=1;whiteSpace=wrap;html=1;" vertex="1" parent="1">
          <mxGeometry x="930" y="330" width="70" height="50" as="geometry" />
        </mxCell>
        <mxCell id="S9zantHSCHyK7LJgYBVC-37" value="c=1&lt;br&gt;No=6" style="rounded=1;whiteSpace=wrap;html=1;" vertex="1" parent="1">
          <mxGeometry x="1000" y="330" width="70" height="50" as="geometry" />
        </mxCell>
        <mxCell id="S9zantHSCHyK7LJgYBVC-38" value="c=6&lt;br&gt;No=7" style="rounded=1;whiteSpace=wrap;html=1;" vertex="1" parent="1">
          <mxGeometry x="1070" y="330" width="70" height="50" as="geometry" />
        </mxCell>
        <mxCell id="S9zantHSCHyK7LJgYBVC-39" value="c=1&lt;br&gt;No=8" style="rounded=1;whiteSpace=wrap;html=1;" vertex="1" parent="1">
          <mxGeometry x="1140" y="330" width="70" height="50" as="geometry" />
        </mxCell>
        <mxCell id="S9zantHSCHyK7LJgYBVC-40" value="c=9&lt;br&gt;No=9" style="rounded=1;whiteSpace=wrap;html=1;" vertex="1" parent="1">
          <mxGeometry x="1210" y="330" width="70" height="50" as="geometry" />
        </mxCell>
        <mxCell id="S9zantHSCHyK7LJgYBVC-41" value="NodeList" style="text;html=1;resizable=0;autosize=1;align=center;verticalAlign=middle;points=[];fillColor=none;strokeColor=none;rounded=0;" vertex="1" parent="1">
          <mxGeometry x="580" y="295" width="60" height="20" as="geometry" />
        </mxCell>
      </root>
    </mxGraphModel>
  </diagram>
</mxfile>
